HIERARCHY
ROOT Hips
{
	OFFSET 0.000000 83.214638 0.000000
	CHANNELS 6 Xposition Yposition Zposition Xrotation Yrotation Zrotation
	JOINT Pelvis
	{
		OFFSET 0.000000 0.000000 0.000000
		CHANNELS 3 Xrotation Yrotation Zrotation
		JOINT LeftUpLeg
		{
			OFFSET 8.479700 -4.795502 -0.379100
			CHANNELS 3 Xrotation Yrotation Zrotation
			JOINT LeftLeg
			{
				OFFSET 0.024144 -32.555107 0.112900
				CHANNELS 3 Xrotation Yrotation Zrotation
				JOINT LeftFoot
				{
					OFFSET -0.024144 -32.638630 -3.012600
					CHANNELS 3 Xrotation Yrotation Zrotation
					JOINT LeftToeBase
					{
						OFFSET 0.970200 -13.225400 11.864200
						CHANNELS 3 Xrotation Yrotation Zrotation
						End Site
						{
							OFFSET 0.000000 12.319262 0.000000
						}
					}
					JOINT LFootTongue
					{
						OFFSET 1.142400 -1.059800 6.665200
						CHANNELS 3 Xrotation Yrotation Zrotation
						End Site
						{
							OFFSET 0.000000 12.319262 0.000000
						}
					}
				}
				JOINT LeftPantLeg
				{
					OFFSET 0.918482 -16.533964 -2.284700
					CHANNELS 3 Xrotation Yrotation Zrotation
					End Site
					{
						OFFSET 0.350399 24.744368 0.000000
					}
				}
			}
		}
		JOINT RightUpLeg
		{
			OFFSET -8.479700 -4.795502 -0.379100
			CHANNELS 3 Xrotation Yrotation Zrotation
			JOINT RightLeg
			{
				OFFSET -0.023144 -32.555092 0.112900
				CHANNELS 3 Xrotation Yrotation Zrotation
				JOINT RightFoot
				{
					OFFSET 0.023144 -32.638641 -3.012700
					CHANNELS 3 Xrotation Yrotation Zrotation
					JOINT RightToeBase
					{
						OFFSET -0.970200 -13.225400 11.864200
						CHANNELS 3 Xrotation Yrotation Zrotation
						End Site
						{
							OFFSET 0.000000 12.319244 0.000000
						}
					}
					JOINT RFootTongue
					{
						OFFSET -1.142200 -1.059800 6.665200
						CHANNELS 3 Xrotation Yrotation Zrotation
						End Site
						{
							OFFSET 0.000000 12.319243 0.000000
						}
					}
				}
				JOINT RightPantLeg
				{
					OFFSET -0.919482 -16.533978 -2.284800
					CHANNELS 3 Xrotation Yrotation Zrotation
					End Site
					{
						OFFSET -0.350400 24.744419 0.000000
					}
				}
			}
		}
	}
	JOINT Spine
	{
		OFFSET 0.000000 7.722000 1.166200
		CHANNELS 3 Xrotation Yrotation Zrotation
		JOINT Spine1
		{
			OFFSET 0.000000 12.024101 0.248800
			CHANNELS 3 Xrotation Yrotation Zrotation
			JOINT Spine2
			{
				OFFSET 0.000000 11.502998 -0.491200
				CHANNELS 3 Xrotation Yrotation Zrotation
				JOINT Neck
				{
					OFFSET 0.000000 18.430702 -3.123100
					CHANNELS 3 Xrotation Yrotation Zrotation
					JOINT Head
					{
						OFFSET 0.000000 9.051102 1.034000
						CHANNELS 3 Xrotation Yrotation Zrotation
						JOINT HairB
						{
							OFFSET 0.208400 24.786102 24.822300
							CHANNELS 3 Xrotation Yrotation Zrotation
							End Site
							{
								OFFSET 0.000000 32.263779 0.000000
							}
						}
						JOINT HairA
						{
							OFFSET -7.081100 24.428299 23.196600
							CHANNELS 3 Xrotation Yrotation Zrotation
							End Site
							{
								OFFSET 0.000000 32.263779 0.000000
							}
						}
						JOINT Hat
						{
							OFFSET 16.728800 15.048294 -15.439601
							CHANNELS 3 Xrotation Yrotation Zrotation
							End Site
							{
								OFFSET 0.000000 32.263779 0.000000
							}
						}
					}
				}
				JOINT LeftShoulder
				{
					OFFSET 6.197800 13.665199 -4.064700
					CHANNELS 3 Xrotation Yrotation Zrotation
					JOINT LeftArm
					{
						OFFSET 7.778100 -0.187103 -1.709300
						CHANNELS 3 Xrotation Yrotation Zrotation
						JOINT LeftForeArm
						{
							OFFSET 22.049376 0.000000 0.000000
							CHANNELS 3 Xrotation Yrotation Zrotation
							JOINT LeftHand
							{
								OFFSET 23.009392 0.000000 0.000000
								CHANNELS 3 Xrotation Yrotation Zrotation
								JOINT LeftHandThumb1
								{
									OFFSET 3.507191 -2.063065 3.133727
									CHANNELS 3 Xrotation Yrotation Zrotation
									JOINT LeftHandThumb2
									{
										OFFSET 3.101337 -1.790558 1.790558
										CHANNELS 3 Xrotation Yrotation Zrotation
										JOINT LeftHandThumb3
										{
											OFFSET 3.058640 -1.765907 1.765906
											CHANNELS 3 Xrotation Yrotation Zrotation
											End Site
											{
												OFFSET -0.415260 3.926476 -0.049563
											}
										}
									}
								}
								JOINT LeftHandIndex1
								{
									OFFSET 11.334419 -0.901459 3.706815
									CHANNELS 3 Xrotation Yrotation Zrotation
									JOINT LeftHandIndex2
									{
										OFFSET 3.283112 0.000000 0.000000
										CHANNELS 3 Xrotation Yrotation Zrotation
										JOINT LeftHandIndex3
										{
											OFFSET 3.323853 0.000000 0.000000
											CHANNELS 3 Xrotation Yrotation Zrotation
											End Site
											{
												OFFSET -1.135597 3.097809 0.402452
											}
										}
									}
								}
								JOINT LeftHandMiddle1
								{
									OFFSET 11.335861 0.000000 0.000000
									CHANNELS 3 Xrotation Yrotation Zrotation
									JOINT LeftHandMiddle2
									{
										OFFSET 3.410492 0.000000 0.000000
										CHANNELS 3 Xrotation Yrotation Zrotation
										JOINT LeftHandMiddle3
										{
											OFFSET 3.312172 0.000000 0.000000
											CHANNELS 3 Xrotation Yrotation Zrotation
											End Site
											{
												OFFSET -1.150200 3.080154 0.400270
											}
										}
									}
								}
								JOINT LeftHandRing1
								{
									OFFSET 11.514786 -0.013176 -3.003090
									CHANNELS 3 Xrotation Yrotation Zrotation
									JOINT LeftHandRing2
									{
										OFFSET 3.053307 0.000000 0.000000
										CHANNELS 3 Xrotation Yrotation Zrotation
										JOINT LeftHandRing3
										{
											OFFSET 3.295807 0.000000 0.000000
											CHANNELS 3 Xrotation Yrotation Zrotation
											End Site
											{
												OFFSET -1.281006 3.013344 0.375733
											}
										}
									}
								}
								JOINT LeftHandPinky1
								{
									OFFSET 10.518692 -0.960396 -5.730441
									CHANNELS 3 Xrotation Yrotation Zrotation
									JOINT LeftHandPinky2
									{
										OFFSET 2.861649 0.000000 0.000000
										CHANNELS 3 Xrotation Yrotation Zrotation
										JOINT LeftHandPinky3
										{
											OFFSET 2.863380 0.000000 0.000000
											CHANNELS 3 Xrotation Yrotation Zrotation
											End Site
											{
												OFFSET -0.843597 2.711159 0.369971
											}
										}
									}
								}
							}
							JOINT LSleeve
							{
								OFFSET 6.676277 -0.344902 -1.011730
								CHANNELS 3 Xrotation Yrotation Zrotation
								End Site
								{
									OFFSET 0.000000 14.885353 0.000000
								}
							}
						}
					}
				}
				JOINT RightShoulder
				{
					OFFSET -6.197800 13.665199 -4.064700
					CHANNELS 3 Xrotation Yrotation Zrotation
					JOINT RightArm
					{
						OFFSET -7.778100 -0.187103 -1.709300
						CHANNELS 3 Xrotation Yrotation Zrotation
						JOINT RightForeArm
						{
							OFFSET -22.049376 0.000000 0.000000
							CHANNELS 3 Xrotation Yrotation Zrotation
							JOINT RightHand
							{
								OFFSET -23.009392 0.000000 0.000000
								CHANNELS 3 Xrotation Yrotation Zrotation
								JOINT RightHandThumb1
								{
									OFFSET -3.507191 -2.063065 3.133727
									CHANNELS 3 Xrotation Yrotation Zrotation
									JOINT RightHandThumb2
									{
										OFFSET -3.101337 -1.790558 1.790558
										CHANNELS 3 Xrotation Yrotation Zrotation
										JOINT RightHandThumb3
										{
											OFFSET -3.058640 -1.765907 1.765906
											CHANNELS 3 Xrotation Yrotation Zrotation
											End Site
											{
												OFFSET 0.415260 3.926476 -0.049563
											}
										}
									}
								}
								JOINT RightHandIndex1
								{
									OFFSET -11.334419 -0.901459 3.706815
									CHANNELS 3 Xrotation Yrotation Zrotation
									JOINT RightHandIndex2
									{
										OFFSET -3.283112 0.000000 0.000000
										CHANNELS 3 Xrotation Yrotation Zrotation
										JOINT RightHandIndex3
										{
											OFFSET -3.323853 0.000000 0.000000
											CHANNELS 3 Xrotation Yrotation Zrotation
											End Site
											{
												OFFSET 1.135597 3.097809 0.402452
											}
										}
									}
								}
								JOINT RightHandMiddle1
								{
									OFFSET -11.335861 0.000000 0.000000
									CHANNELS 3 Xrotation Yrotation Zrotation
									JOINT RightHandMiddle2
									{
										OFFSET -3.410492 0.000000 0.000000
										CHANNELS 3 Xrotation Yrotation Zrotation
										JOINT RightHandMiddle3
										{
											OFFSET -3.312172 0.000000 0.000000
											CHANNELS 3 Xrotation Yrotation Zrotation
											End Site
											{
												OFFSET 1.150200 3.080154 0.400270
											}
										}
									}
								}
								JOINT RightHandRing1
								{
									OFFSET -11.514786 -0.013176 -3.003090
									CHANNELS 3 Xrotation Yrotation Zrotation
									JOINT RightHandRing2
									{
										OFFSET -3.053307 0.000000 0.000000
										CHANNELS 3 Xrotation Yrotation Zrotation
										JOINT RightHandRing3
										{
											OFFSET -3.295807 0.000000 0.000000
											CHANNELS 3 Xrotation Yrotation Zrotation
											End Site
											{
												OFFSET 1.281006 3.013344 0.375733
											}
										}
									}
								}
								JOINT RightHandPinky1
								{
									OFFSET -10.518692 -0.960396 -5.730441
									CHANNELS 3 Xrotation Yrotation Zrotation
									JOINT RightHandPinky2
									{
										OFFSET -2.861649 0.000000 0.000000
										CHANNELS 3 Xrotation Yrotation Zrotation
										JOINT RightHandPinky3
										{
											OFFSET -2.863380 0.000000 0.000000
											CHANNELS 3 Xrotation Yrotation Zrotation
											End Site
											{
												OFFSET 0.843597 2.711159 0.369971
											}
										}
									}
								}
							}
							JOINT RSleeve
							{
								OFFSET -6.676277 -0.344902 -1.011730
								CHANNELS 3 Xrotation Yrotation Zrotation
								End Site
								{
									OFFSET 0.000000 14.885353 0.000000
								}
							}
						}
					}
				}
				JOINT Backpack
				{
					OFFSET 0.000000 -2.471497 36.677502
					CHANNELS 3 Xrotation Yrotation Zrotation
					End Site
					{
						OFFSET 0.000000 20.427315 0.000000
					}
				}
				JOINT Hood
				{
					OFFSET 0.000000 18.754097 -10.431000
					CHANNELS 3 Xrotation Yrotation Zrotation
					JOINT Hood1
					{
						OFFSET 0.000000 -5.011002 -7.685901
						CHANNELS 3 Xrotation Yrotation Zrotation
						End Site
						{
							OFFSET 0.000000 9.175140 0.000000
						}
					}
				}
				JOINT LHoodieString
				{
					OFFSET 5.250500 16.397697 3.089900
					CHANNELS 3 Xrotation Yrotation Zrotation
					JOINT LHoodieString1
					{
						OFFSET 0.257700 -6.364304 3.694600
						CHANNELS 3 Xrotation Yrotation Zrotation
						JOINT LHoodieString2
						{
							OFFSET 0.000000 -9.643799 2.679100
							CHANNELS 3 Xrotation Yrotation Zrotation
							End Site
							{
								OFFSET 0.000000 10.009018 0.000000
							}
						}
					}
				}
				JOINT RHoodieString
				{
					OFFSET -5.250500 16.397697 3.089900
					CHANNELS 3 Xrotation Yrotation Zrotation
					JOINT RHoodieString1
					{
						OFFSET -0.257700 -6.364304 3.694600
						CHANNELS 3 Xrotation Yrotation Zrotation
						JOINT RHoodieString2
						{
							OFFSET 0.000000 -9.643799 2.679100
							CHANNELS 3 Xrotation Yrotation Zrotation
							End Site
							{
								OFFSET 0.000000 10.009018 0.000000
							}
						}
					}
				}
			}
			JOINT LBackpack_Strap
			{
				OFFSET 15.223200 -7.719803 -6.610900
				CHANNELS 3 Xrotation Yrotation Zrotation
				End Site
				{
					OFFSET 0.000000 16.040596 0.000000
				}
			}
			JOINT RBackpack_Strap
			{
				OFFSET -15.223000 -7.719803 -6.610900
				CHANNELS 3 Xrotation Yrotation Zrotation
				End Site
				{
					OFFSET 0.000000 16.040596 0.000000
				}
			}
		}
	}
	JOINT BoyFacialAnim_Joint
	{
		OFFSET 1.000000 -82.208099 -1.550900
		CHANNELS 3 Xrotation Yrotation Zrotation
		End Site
		{
			OFFSET 0.000000 30.012791 0.000000
		}
	}
}
MOTION
Frames: 4
Frame Time: 0.033333
-1.120193 79.757210 0.764767 -14.868728 -49.721837 -11.385224 -0.000000 0.000002 -0.000000 -10.896679 18.898795 18.899046 20.421062 -9.054343 2.736057 -1.737715 -0.204814 -14.343442 0.000000 0.000005 -0.000000 0.000000 0.000005 -0.000000 0.000000 -0.000001 0.000000 -2.189368 -13.473655 -11.779771 25.566105 10.139702 -6.245853 -15.900882 1.418622 9.223637 -0.000000 0.000002 0.000000 -0.000000 0.000002 0.000000 0.000002 0.000000 -0.000000 4.009463 0.220083 -0.268718 7.976743 0.222423 1.349460 7.977590 0.185050 1.352654 2.717378 5.083906 -0.820998 4.018812 27.263661 -12.727963 -0.000001 0.000000 -0.000000 -0.000001 0.000000 -0.000000 -0.000001 0.000000 -0.000000 0.715850 0.857592 -6.803320 -52.159727 0.581246 -30.869675 -0.000015 -74.885395 -0.000007 5.492997 0.430350 5.715604 11.879990 18.225600 1.561540 3.554298 18.057352 6.117091 0.000000 -0.000000 0.000004 5.129631 6.655595 -75.219487 9.042276 6.534597 -108.344798 -0.000001 0.000002 0.000000 5.127755 6.655087 -75.203286 9.044093 6.533969 -108.360979 0.000005 -0.000001 0.000004 5.129623 6.655567 -75.219480 9.042254 6.534587 -108.344805 -0.000004 0.000002 -0.000000 9.080484 7.690865 -75.202616 9.031826 2.450508 -108.211459 -0.000000 -0.000002 0.000003 -0.000002 0.000006 -0.000000 0.773474 0.589276 10.344114 -53.794597 40.639318 60.608285 0.000112 112.541956 -0.000120 -6.490471 12.465904 -5.671046 9.563653 -18.831535 0.592560 21.608972 -27.995578 8.894768 -0.000005 -0.000002 0.000002 4.971157 -6.662339 73.429950 9.695524 -6.384493 113.341464 -0.000002 0.000001 0.000000 4.971142 -6.662332 73.429943 9.695506 -6.384494 113.341436 0.000003 -0.000003 0.000001 4.971150 -6.662313 73.429950 9.695501 -6.384494 113.341457 -0.000000 -0.000000 0.000004 4.971146 -6.662305 73.429943 9.695525 -6.384507 113.341443 -0.000002 0.000000 -0.000003 -0.000000 0.000002 -0.000004 0.000001 -0.000000 -0.000000 0.000001 -0.000000 -0.000000 0.000001 -0.000000 -0.000000 0.000001 -0.000000 -0.000000 0.000001 -0.000000 -0.000000 -0.000000 -0.000002 0.000001 0.000001 -0.000000 -0.000000 0.000001 -0.000000 -0.000000 -0.000000 -0.000002 0.000001 -0.000000 0.000001 -0.000000 -0.000000 0.000001 -0.000000 -0.000000 0.000002 -0.000000 
-1.198641 79.771484 0.663893 -14.085604 -49.143846 -11.005436 -0.000000 0.000001 0.000000 -11.598540 18.619917 19.193752 20.338502 -8.671455 2.924668 -1.598227 -0.977694 -14.625744 0.000000 -0.000001 0.000000 0.000000 -0.000001 -0.000000 -0.000000 -0.000003 0.000002 -2.120216 -13.330799 -11.244178 25.357359 10.251391 -6.016539 -15.838657 0.487018 8.853294 -0.000000 0.000003 -0.000000 -0.000000 0.000003 -0.000000 0.000000 -0.000001 -0.000000 3.904835 0.053827 -0.120733 7.775014 -0.067313 1.473279 7.774586 -0.100463 1.475909 2.834664 5.128789 -0.889246 4.179668 27.466755 -12.905651 -0.000000 0.000000 0.000000 -0.000000 0.000000 0.000000 -0.000000 0.000000 0.000000 0.701334 0.958589 -6.768370 -51.887065 0.850916 -30.888902 0.000030 -74.950036 0.000040 3.529529 0.117895 5.900031 11.879996 18.225602 1.561538 3.554296 18.057354 6.117087 -0.000000 -0.000002 0.000001 5.129635 6.655590 -75.219487 9.042275 6.534596 -108.344805 0.000004 -0.000002 -0.000004 5.127762 6.655082 -75.203292 9.044086 6.533971 -108.360985 0.000005 0.000000 0.000002 5.129624 6.655563 -75.219473 9.042258 6.534590 -108.344805 -0.000002 -0.000001 -0.000001 9.080491 7.690866 -75.202623 9.031825 2.450502 -108.211459 -0.000001 0.000001 -0.000000 0.000001 0.000004 -0.000000 0.770446 0.608443 10.335445 -53.576574 40.942469 60.789469 0.000144 112.175250 -0.000158 -6.496601 12.436891 -6.006117 9.563650 -18.831537 0.592562 21.608965 -27.995574 8.894767 -0.000003 0.000000 0.000003 4.971156 -6.662343 73.429950 9.695524 -6.384494 113.341464 -0.000001 -0.000001 -0.000002 4.971136 -6.662333 73.429943 9.695503 -6.384493 113.341436 -0.000001 0.000000 -0.000002 4.971146 -6.662315 73.429957 9.695501 -6.384498 113.341457 0.000001 -0.000000 0.000004 4.971141 -6.662307 73.429950 9.695528 -6.384501 113.341436 0.000001 -0.000001 0.000004 0.000003 -0.000002 -0.000003 0.000000 0.000001 0.000000 0.000000 0.000001 0.000000 0.000000 0.000001 0.000000 0.000000 0.000001 0.000000 0.000000 0.000001 0.000000 -0.000001 0.000001 0.000000 0.000000 0.000001 0.000000 0.000000 0.000001 0.000000 -0.000001 0.000001 0.000000 0.000000 0.000002 -0.000000 0.000000 0.000002 -0.000000 -0.000000 0.000001 0.000000 
-1.336113 79.784988 0.530949 -12.924501 -48.071155 -10.385039 0.000000 0.000002 0.000000 -12.644159 18.148605 19.549912 20.208803 -8.136175 3.186600 -1.379090 -2.267466 -14.990254 -0.000000 -0.000001 0.000000 -0.000000 -0.000001 0.000000 -0.000001 0.000002 0.000001 -1.981014 -13.190780 -10.504776 25.111754 10.454814 -5.669075 -15.852304 -1.013500 8.217643 -0.000000 0.000003 0.000000 -0.000000 0.000003 0.000000 0.000002 -0.000001 -0.000001 3.746569 -0.233393 0.111936 7.470863 -0.577159 1.648782 7.468759 -0.603678 1.650597 3.006775 5.214239 -0.997111 4.432888 27.868191 -13.237151 -0.000000 -0.000001 0.000000 -0.000000 -0.000001 0.000000 -0.000000 -0.000001 0.000000 0.687648 1.051965 -6.731962 -50.429865 1.917002 -30.865212 0.000122 -75.808714 0.000137 -1.440848 0.058747 5.621092 11.879999 18.225600 1.561539 3.554295 18.057355 6.117086 -0.000002 0.000001 -0.000001 5.129633 6.655587 -75.219494 9.042280 6.534599 -108.344805 -0.000002 0.000001 -0.000002 5.127765 6.655084 -75.203292 9.044083 6.533974 -108.360985 0.000003 0.000001 0.000002 5.129631 6.655567 -75.219480 9.042255 6.534591 -108.344805 0.000001 0.000002 -0.000004 9.080496 7.690862 -75.202623 9.031831 2.450503 -108.211459 -0.000003 -0.000000 0.000001 -0.000002 -0.000001 0.000002 0.765357 0.642660 10.320868 -53.119010 41.676728 61.324874 0.000041 111.445526 -0.000037 -6.823689 12.230730 -6.602516 9.563656 -18.831537 0.592561 21.608967 -27.995579 8.894772 0.000001 0.000001 0.000003 4.971160 -6.662342 73.429957 9.695523 -6.384499 113.341457 -0.000002 -0.000001 0.000002 4.971141 -6.662332 73.429950 9.695505 -6.384493 113.341436 0.000005 -0.000002 -0.000002 4.971150 -6.662315 73.429950 9.695500 -6.384495 113.341457 0.000001 0.000001 -0.000001 4.971150 -6.662310 73.429950 9.695527 -6.384504 113.341436 -0.000001 -0.000003 -0.000000 -0.000003 -0.000001 -0.000002 0.000000 -0.000001 0.000000 0.000000 -0.000001 0.000000 0.000000 -0.000001 0.000000 0.000000 -0.000001 0.000000 0.000000 -0.000001 0.000001 0.000000 0.000000 -0.000000 0.000000 -0.000001 0.000000 0.000000 -0.000001 0.000001 0.000000 0.000000 -0.000000 -0.000000 0.000002 -0.000000 -0.000000 0.000002 -0.000000 0.000000 0.000002 0.000000 
-1.530738 79.787117 0.388253 -11.594130 -46.500546 -9.556606 -0.000000 -0.000000 -0.000000 -13.840996 17.546790 19.795292 19.992300 -7.646048 3.449997 -1.061028 -3.937453 -15.304354 -0.000000 -0.000001 0.000000 -0.000000 -0.000001 -0.000000 0.000000 0.000000 -0.000002 -1.813368 -13.094419 -9.802585 24.842742 9.204518 -5.282414 -16.037771 -1.498067 7.861959 -0.000000 0.000001 -0.000000 -0.000000 0.000001 -0.000000 0.000000 -0.000001 0.000001 3.590370 -0.518637 0.264452 7.167976 -1.097614 1.716742 7.164736 -1.118809 1.717919 3.124212 5.287950 -1.102392 4.409885 28.192063 -13.340451 0.000000 0.000000 0.000000 0.000000 0.000000 0.000000 0.000000 0.000000 0.000000 0.680596 1.088152 -6.696063 -46.635753 3.652880 -31.330764 0.000036 -77.514444 0.000055 -8.495862 0.592907 5.329115 11.879991 18.225600 1.561538 3.554302 18.057352 6.117090 -0.000002 0.000001 0.000001 5.129631 6.655592 -75.219480 9.042278 6.534591 -108.344798 0.000001 -0.000001 -0.000004 5.127759 6.655087 -75.203292 9.044089 6.533969 -108.360985 -0.000000 0.000000 -0.000002 5.129627 6.655566 -75.219480 9.042255 6.534591 -108.344805 -0.000000 0.000002 -0.000000 9.080485 7.690864 -75.202623 9.031825 2.450500 -108.211459 -0.000000 -0.000000 0.000001 -0.000004 -0.000002 0.000001 0.753470 0.666259 10.292225 -52.415381 42.762561 62.007299 -0.000006 110.378876 -0.000005 -7.394978 12.099165 -7.235129 9.563649 -18.831537 0.592558 21.608970 -27.995576 8.894773 -0.000003 0.000001 0.000002 4.971156 -6.662344 73.429950 9.695523 -6.384495 113.341457 -0.000003 0.000002 0.000002 4.971139 -6.662332 73.429943 9.695504 -6.384493 113.341436 0.000007 -0.000002 0.000003 4.971143 -6.662314 73.429950 9.695500 -6.384498 113.341457 -0.000002 -0.000002 -0.000002 4.971144 -6.662308 73.429950 9.695526 -6.384507 113.341436 0.000001 -0.000002 0.000002 -0.000002 -0.000004 0.000001 0.000001 -0.000000 -0.000000 0.000001 -0.000000 -0.000000 0.000001 -0.000000 -0.000000 0.000001 -0.000000 -0.000000 0.000001 -0.000000 -0.000000 -0.000000 -0.000000 -0.000000 0.000001 -0.000000 -0.000000 0.000001 -0.000000 -0.000000 -0.000000 -0.000000 -0.000000 -0.000000 -0.000002 0.000000 -0.000000 -0.000002 0.000000 -0.000000 -0.000000 -0.000000 
